<svg xmlns="http://www.w3.org/2000/svg" class="graphdiagram" viewBox="NaN NaN NaN NaN"><g class="layer relationships"><g class="related-pair"><g class="relationship" transform="translate(-1290.2190399169922,23.944520711898804) rotate(0)"><path class="relationship" d="M 123.92019030785022 4 L 1374.1713433885093 4 L 1374.1713433885093 16 L 1406.1713433885093 0 L 1374.1713433885093 -16 L 1374.1713433885093 -4 L 123.92019030785022 -4 Z" fill="rgb(0, 0, 0)" stroke="rgb(51, 51, 51)" stroke-width="0px"/><text class="type" text-anchor="middle" baseline-shift="30%" alignment-baseline="alphabetic" x="749.0457668481798" y="0" font-size="50px" font-family="&quot;Gill Sans&quot;, &quot;Gill Sans MT&quot;, Calibri, sans-serif">referred</text></g></g><g class="related-pair"><g class="relationship" transform="translate(-1290.2190399169922,23.944520711898804) rotate(90)"><path class="relationship" d="M 123.92019030785022 4 L 395.4699894635668 4 L 395.4699894635668 16 L 427.4699894635668 0 L 395.4699894635668 -16 L 395.4699894635668 -4 L 123.92019030785022 -4 Z" fill="rgb(0, 0, 0)" stroke="rgb(51, 51, 51)" stroke-width="0px"/></g></g><g class="related-pair"><g class="relationship" transform="translate(-1290.2190399169922,23.944520711898804) rotate(-90)"><path class="relationship" d="M 123.92019030785022 4 L 362.0251012551558 4 L 362.0251012551558 16 L 394.0251012551558 0 L 362.0251012551558 -16 L 362.0251012551558 -4 L 123.92019030785022 -4 Z" fill="rgb(0, 0, 0)" stroke="rgb(51, 51, 51)" stroke-width="0px"/></g></g><g class="related-pair"><g class="relationship" transform="translate(232.2100372314453,23.944520711898804) rotate(-90)"><path class="relationship" d="M 116.2577337599282 4 L 390.33136803982376 4 L 390.33136803982376 16 L 422.33136803982376 0 L 390.33136803982376 -16 L 390.33136803982376 -4 L 116.2577337599282 -4 Z" fill="rgb(0, 0, 0)" stroke="rgb(51, 51, 51)" stroke-width="0px"/></g></g><g class="related-pair"><g class="relationship" transform="translate(232.2100372314453,23.944520711898804) rotate(90)"><path class="relationship" d="M 116.2577337599282 4 L 395.4699894635668 4 L 395.4699894635668 16 L 427.4699894635668 0 L 395.4699894635668 -16 L 395.4699894635668 -4 L 116.2577337599282 -4 Z" fill="rgb(0, 0, 0)" stroke="rgb(51, 51, 51)" stroke-width="0px"/></g></g></g><g class="layer nodes"><circle class="node node-id-0" r="108.92019030785022" fill="rgb(255, 255, 255)" stroke="rgb(0, 0, 0)" stroke-width="8px" cx="-1290.2190399169922" cy="23.944520711898804"/><g class="caption"><text class="caption node" text-anchor="middle" alignment-baseline="central" x="-1290.2190399169922" y="23.944520711898804" fill="rgb(51, 51, 51)" font-size="50px" font-family="&quot;Gill Sans&quot;, &quot;Gill Sans MT&quot;, Calibri, sans-serif">provider</text></g><circle class="node node-id-1" r="101.2577337599282" fill="rgb(255, 255, 255)" stroke="rgb(0, 0, 0)" stroke-width="8px" cx="232.2100372314453" cy="23.944520711898804"/><g class="caption"><text class="caption node" text-anchor="middle" alignment-baseline="central" x="232.2100372314453" y="23.944520711898804" fill="rgb(51, 51, 51)" font-size="50px" font-family="&quot;Gill Sans&quot;, &quot;Gill Sans MT&quot;, Calibri, sans-serif">hospital</text></g><circle class="node node-id-2" r="122.96717317414381" fill="rgb(255, 255, 255)" stroke="rgb(0, 0, 0)" stroke-width="8px" cx="-1290.2190399169922" cy="589.3816833496094"/><circle class="node node-id-5" r="145.6911174547899" fill="rgb(255, 255, 255)" stroke="rgb(0, 0, 0)" stroke-width="8px" cx="-1290.2190399169922" cy="-530.7716979980469"/><g class="caption"><text class="caption node" text-anchor="middle" alignment-baseline="central" x="-1290.2190399169922" y="589.3816833496094" fill="rgb(51, 51, 51)" font-size="50px" font-family="&quot;Gill Sans&quot;, &quot;Gill Sans MT&quot;, Calibri, sans-serif">taxonomy</text></g><g class="caption"><text class="caption node" text-anchor="middle" alignment-baseline="central" x="-1290.2190399169922" y="-530.7716979980469" fill="rgb(51, 51, 51)" font-size="50px" font-family="&quot;Gill Sans&quot;, &quot;Gill Sans MT&quot;, Calibri, sans-serif">organization</text></g><circle class="node node-id-6" r="145.6911174547899" fill="rgb(255, 255, 255)" stroke="rgb(0, 0, 0)" stroke-width="8px" cx="232.2100372314453" cy="-559.0779647827148"/><circle class="node node-id-7" r="122.96717317414381" fill="rgb(255, 255, 255)" stroke="rgb(0, 0, 0)" stroke-width="8px" cx="232.2100372314453" cy="589.3816833496094"/><g class="caption"><text class="caption node" text-anchor="middle" alignment-baseline="central" x="232.2100372314453" y="-559.0779647827148" fill="rgb(51, 51, 51)" font-size="50px" font-family="&quot;Gill Sans&quot;, &quot;Gill Sans MT&quot;, Calibri, sans-serif">organization</text></g><g class="caption"><text class="caption node" text-anchor="middle" alignment-baseline="central" x="232.2100372314453" y="589.3816833496094" fill="rgb(51, 51, 51)" font-size="50px" font-family="&quot;Gill Sans&quot;, &quot;Gill Sans MT&quot;, Calibri, sans-serif">taxonomy</text></g></g><g class="layer properties"><g class="speech-bubble node-speech-bubble" transform="translate(-1399.1392302248423,23.944520711898804) "><path class="speech-bubble-outline" transform="scale(-1,1) " d="M 0 0 L 20 -10 L 20 -100 A 10 10 0 0 1 30 -110 L 538.6333312988281 -110 A 10 10 0 0 1 548.6333312988281 -100 L 548.6333312988281 100 A 10 10 0 0 1 538.6333312988281 110 L 30 110 A 10 10 0 0 1 20 100 L 20 10 Z" fill="rgb(255, 255, 255)" stroke="rgb(0, 0, 0)" stroke-width="3px"/><text class="speech-bubble-content property-key" x="-171.64999389648438" y="-75" alignment-baseline="central" text-anchor="end" font-size="50px" font-family="&quot;Gill Sans&quot;, &quot;Gill Sans MT&quot;, Calibri, sans-serif" xml:space="preserve">name: </text><text class="speech-bubble-content property-value" x="-171.64999389648438" y="-75" alignment-baseline="central" font-size="50px" font-family="&quot;Gill Sans&quot;, &quot;Gill Sans MT&quot;, Calibri, sans-serif">string</text><text class="speech-bubble-content property-key" x="-171.64999389648438" y="-25" alignment-baseline="central" text-anchor="end" font-size="50px" font-family="&quot;Gill Sans&quot;, &quot;Gill Sans MT&quot;, Calibri, sans-serif" xml:space="preserve">credential: </text><text class="speech-bubble-content property-key" x="-171.64999389648438" y="25" alignment-baseline="central" text-anchor="end" font-size="50px" font-family="&quot;Gill Sans&quot;, &quot;Gill Sans MT&quot;, Calibri, sans-serif" xml:space="preserve">npi: </text><text class="speech-bubble-content property-key" x="-171.64999389648438" y="75" alignment-baseline="central" text-anchor="end" font-size="50px" font-family="&quot;Gill Sans&quot;, &quot;Gill Sans MT&quot;, Calibri, sans-serif" xml:space="preserve">practice_address: </text><text class="speech-bubble-content property-value" x="-171.64999389648438" y="-25" alignment-baseline="central" font-size="50px" font-family="&quot;Gill Sans&quot;, &quot;Gill Sans MT&quot;, Calibri, sans-serif">string</text><text class="speech-bubble-content property-value" x="-171.64999389648438" y="25" alignment-baseline="central" font-size="50px" font-family="&quot;Gill Sans&quot;, &quot;Gill Sans MT&quot;, Calibri, sans-serif">integer</text><text class="speech-bubble-content property-value" x="-171.64999389648438" y="75" alignment-baseline="central" font-size="50px" font-family="&quot;Gill Sans&quot;, &quot;Gill Sans MT&quot;, Calibri, sans-serif">string</text></g><g class="speech-bubble node-speech-bubble" transform="translate(333.4677709913735,23.944520711898804) "><path class="speech-bubble-outline" transform="scale(1,1) " d="M 0 0 L 20 -10 L 20 -100 A 10 10 0 0 1 30 -110 L 538.6333312988281 -110 A 10 10 0 0 1 548.6333312988281 -100 L 548.6333312988281 100 A 10 10 0 0 1 538.6333312988281 110 L 30 110 A 10 10 0 0 1 20 100 L 20 10 Z" fill="rgb(255, 255, 255)" stroke="rgb(0, 0, 0)" stroke-width="3px"/><text class="speech-bubble-content property-key" x="396.98333740234375" y="-75" alignment-baseline="central" text-anchor="end" font-size="50px" font-family="&quot;Gill Sans&quot;, &quot;Gill Sans MT&quot;, Calibri, sans-serif" xml:space="preserve">name: </text><text class="speech-bubble-content property-key" x="396.98333740234375" y="-25" alignment-baseline="central" text-anchor="end" font-size="50px" font-family="&quot;Gill Sans&quot;, &quot;Gill Sans MT&quot;, Calibri, sans-serif" xml:space="preserve">credential: </text><text class="speech-bubble-content property-value" x="396.98333740234375" y="-75" alignment-baseline="central" font-size="50px" font-family="&quot;Gill Sans&quot;, &quot;Gill Sans MT&quot;, Calibri, sans-serif">string</text><text class="speech-bubble-content property-value" x="396.98333740234375" y="-25" alignment-baseline="central" font-size="50px" font-family="&quot;Gill Sans&quot;, &quot;Gill Sans MT&quot;, Calibri, sans-serif">string</text><text class="speech-bubble-content property-key" x="396.98333740234375" y="25" alignment-baseline="central" text-anchor="end" font-size="50px" font-family="&quot;Gill Sans&quot;, &quot;Gill Sans MT&quot;, Calibri, sans-serif" xml:space="preserve">npi: </text><text class="speech-bubble-content property-value" x="396.98333740234375" y="25" alignment-baseline="central" font-size="50px" font-family="&quot;Gill Sans&quot;, &quot;Gill Sans MT&quot;, Calibri, sans-serif">integer</text><text class="speech-bubble-content property-key" x="396.98333740234375" y="75" alignment-baseline="central" text-anchor="end" font-size="50px" font-family="&quot;Gill Sans&quot;, &quot;Gill Sans MT&quot;, Calibri, sans-serif" xml:space="preserve">practice_address: </text><text class="speech-bubble-content property-value" x="396.98333740234375" y="75" alignment-baseline="central" font-size="50px" font-family="&quot;Gill Sans&quot;, &quot;Gill Sans MT&quot;, Calibri, sans-serif">string</text></g><g class="speech-bubble node-speech-bubble" transform="translate(-1290.2190399169922,712.3488565237532) "><path class="speech-bubble-outline" transform="scale(1,1) " d="M 0 0 L -10 20 L -233.08332443237305 20 A 10 10 0 0 0 -243.08332443237305 30 L -243.08332443237305 130 A 10 10 0 0 0 -233.08332443237305 140 L 233.08332443237305 140 A 10 10 0 0 0 243.08332443237305 130 L 243.08332443237305 30 A 10 10 0 0 0 233.08332443237305 20 L 10 20 Z" fill="rgb(255, 255, 255)" stroke="rgb(0, 0, 0)" stroke-width="3px"/><text class="speech-bubble-content property-key" x="120.09999465942383" y="55" alignment-baseline="central" text-anchor="end" font-size="50px" font-family="&quot;Gill Sans&quot;, &quot;Gill Sans MT&quot;, Calibri, sans-serif" xml:space="preserve">taxonomy_code: </text><text class="speech-bubble-content property-value" x="120.09999465942383" y="55" alignment-baseline="central" font-size="50px" font-family="&quot;Gill Sans&quot;, &quot;Gill Sans MT&quot;, Calibri, sans-serif">string</text><text class="speech-bubble-content property-key" x="120.09999465942383" y="105" alignment-baseline="central" text-anchor="end" font-size="50px" font-family="&quot;Gill Sans&quot;, &quot;Gill Sans MT&quot;, Calibri, sans-serif" xml:space="preserve">taxonomy_type: </text><text class="speech-bubble-content property-value" x="120.09999465942383" y="105" alignment-baseline="central" font-size="50px" font-family="&quot;Gill Sans&quot;, &quot;Gill Sans MT&quot;, Calibri, sans-serif">string</text></g><g class="speech-bubble node-speech-bubble" transform="translate(-1290.2190399169922,-676.4628154528368) "><path class="speech-bubble-outline" transform="scale(1,-1) " d="M 0 0 L -10 20 L -171.48333358764648 20 A 10 10 0 0 0 -181.48333358764648 30 L -181.48333358764648 80 A 10 10 0 0 0 -171.48333358764648 90 L 171.48333358764648 90 A 10 10 0 0 0 181.48333358764648 80 L 181.48333358764648 30 A 10 10 0 0 0 171.48333358764648 20 L 10 20 Z" fill="rgb(255, 255, 255)" stroke="rgb(0, 0, 0)" stroke-width="3px"/><text class="speech-bubble-content property-key" x="58.500003814697266" y="-55" alignment-baseline="central" text-anchor="end" font-size="50px" font-family="&quot;Gill Sans&quot;, &quot;Gill Sans MT&quot;, Calibri, sans-serif" xml:space="preserve">org_name: </text><text class="speech-bubble-content property-value" x="58.500003814697266" y="-55" alignment-baseline="central" font-size="50px" font-family="&quot;Gill Sans&quot;, &quot;Gill Sans MT&quot;, Calibri, sans-serif">string</text></g><g class="speech-bubble node-speech-bubble" transform="translate(232.2100372314453,-704.7690822375048) "><path class="speech-bubble-outline" transform="scale(1,-1) " d="M 0 0 L -10 20 L -171.48333358764648 20 A 10 10 0 0 0 -181.48333358764648 30 L -181.48333358764648 80 A 10 10 0 0 0 -171.48333358764648 90 L 171.48333358764648 90 A 10 10 0 0 0 181.48333358764648 80 L 181.48333358764648 30 A 10 10 0 0 0 171.48333358764648 20 L 10 20 Z" fill="rgb(255, 255, 255)" stroke="rgb(0, 0, 0)" stroke-width="3px"/><text class="speech-bubble-content property-key" x="58.500003814697266" y="-55" alignment-baseline="central" text-anchor="end" font-size="50px" font-family="&quot;Gill Sans&quot;, &quot;Gill Sans MT&quot;, Calibri, sans-serif" xml:space="preserve">org_name: </text><text class="speech-bubble-content property-value" x="58.500003814697266" y="-55" alignment-baseline="central" font-size="50px" font-family="&quot;Gill Sans&quot;, &quot;Gill Sans MT&quot;, Calibri, sans-serif">string</text></g><g class="speech-bubble node-speech-bubble" transform="translate(232.2100372314453,712.3488565237532) "><path class="speech-bubble-outline" transform="scale(1,1) " d="M 0 0 L -10 20 L -233.08332443237305 20 A 10 10 0 0 0 -243.08332443237305 30 L -243.08332443237305 130 A 10 10 0 0 0 -233.08332443237305 140 L 233.08332443237305 140 A 10 10 0 0 0 243.08332443237305 130 L 243.08332443237305 30 A 10 10 0 0 0 233.08332443237305 20 L 10 20 Z" fill="rgb(255, 255, 255)" stroke="rgb(0, 0, 0)" stroke-width="3px"/><text class="speech-bubble-content property-key" x="120.09999465942383" y="55" alignment-baseline="central" text-anchor="end" font-size="50px" font-family="&quot;Gill Sans&quot;, &quot;Gill Sans MT&quot;, Calibri, sans-serif" xml:space="preserve">taxonomy_type: </text><text class="speech-bubble-content property-key" x="120.09999465942383" y="105" alignment-baseline="central" text-anchor="end" font-size="50px" font-family="&quot;Gill Sans&quot;, &quot;Gill Sans MT&quot;, Calibri, sans-serif" xml:space="preserve">taxonomy_code: </text><text class="speech-bubble-content property-value" x="120.09999465942383" y="55" alignment-baseline="central" font-size="50px" font-family="&quot;Gill Sans&quot;, &quot;Gill Sans MT&quot;, Calibri, sans-serif">string</text><text class="speech-bubble-content property-value" x="120.09999465942383" y="105" alignment-baseline="central" font-size="50px" font-family="&quot;Gill Sans&quot;, &quot;Gill Sans MT&quot;, Calibri, sans-serif">string</text></g><g class="speech-bubble relationship-speech-bubble" transform="translate(-541.1732730688123,23.944520711898804) "><path class="speech-bubble-outline" transform="scale(1,1) " d="M 0 0 L -10 20 L -267.8333282470703 20 A 10 10 0 0 0 -277.8333282470703 30 L -277.8333282470703 280 A 10 10 0 0 0 -267.8333282470703 290 L 267.8333282470703 290 A 10 10 0 0 0 277.8333282470703 280 L 277.8333282470703 30 A 10 10 0 0 0 267.8333282470703 20 L 10 20 Z" fill="rgb(255, 255, 255)" stroke="rgb(0, 0, 0)" stroke-width="3px"/><text class="speech-bubble-content property-key" x="126.18333435058594" y="55" alignment-baseline="central" text-anchor="end" font-size="50px" font-family="&quot;Gill Sans&quot;, &quot;Gill Sans MT&quot;, Calibri, sans-serif" xml:space="preserve">referral_id: </text><text class="speech-bubble-content property-key" x="126.18333435058594" y="105" alignment-baseline="central" text-anchor="end" font-size="50px" font-family="&quot;Gill Sans&quot;, &quot;Gill Sans MT&quot;, Calibri, sans-serif" xml:space="preserve">patient_count: </text><text class="speech-bubble-content property-key" x="126.18333435058594" y="155" alignment-baseline="central" text-anchor="end" font-size="50px" font-family="&quot;Gill Sans&quot;, &quot;Gill Sans MT&quot;, Calibri, sans-serif" xml:space="preserve">transaction_count: </text><text class="speech-bubble-content property-key" x="126.18333435058594" y="205" alignment-baseline="central" text-anchor="end" font-size="50px" font-family="&quot;Gill Sans&quot;, &quot;Gill Sans MT&quot;, Calibri, sans-serif" xml:space="preserve">average_day_wait: </text><text class="speech-bubble-content property-key" x="126.18333435058594" y="255" alignment-baseline="central" text-anchor="end" font-size="50px" font-family="&quot;Gill Sans&quot;, &quot;Gill Sans MT&quot;, Calibri, sans-serif" xml:space="preserve">std_day_wait: </text><text class="speech-bubble-content property-value" x="126.18333435058594" y="55" alignment-baseline="central" font-size="50px" font-family="&quot;Gill Sans&quot;, &quot;Gill Sans MT&quot;, Calibri, sans-serif">integer</text><text class="speech-bubble-content property-value" x="126.18333435058594" y="105" alignment-baseline="central" font-size="50px" font-family="&quot;Gill Sans&quot;, &quot;Gill Sans MT&quot;, Calibri, sans-serif">integer</text><text class="speech-bubble-content property-value" x="126.18333435058594" y="155" alignment-baseline="central" font-size="50px" font-family="&quot;Gill Sans&quot;, &quot;Gill Sans MT&quot;, Calibri, sans-serif">integer</text><text class="speech-bubble-content property-value" x="126.18333435058594" y="205" alignment-baseline="central" font-size="50px" font-family="&quot;Gill Sans&quot;, &quot;Gill Sans MT&quot;, Calibri, sans-serif">float</text><text class="speech-bubble-content property-value" x="126.18333435058594" y="255" alignment-baseline="central" font-size="50px" font-family="&quot;Gill Sans&quot;, &quot;Gill Sans MT&quot;, Calibri, sans-serif">float</text></g></g><g class="layer overlay"><circle class="node overlay" r="112.92019030785022" stroke="none" fill="rgba(255, 255, 255, 0)" cx="-1290.2190399169922" cy="23.944520711898804"/><circle class="node ring" r="117.92019030785022" fill="none" stroke="rgba(255, 255, 255, 0)" stroke-width="10px" cx="-1290.2190399169922" cy="23.944520711898804"/><circle class="node overlay" r="105.2577337599282" stroke="none" fill="rgba(255, 255, 255, 0)" cx="232.2100372314453" cy="23.944520711898804"/><circle class="node ring" r="110.2577337599282" fill="none" stroke="rgba(255, 255, 255, 0)" stroke-width="10px" cx="232.2100372314453" cy="23.944520711898804"/><path class="relationship overlay" fill="rgba(255, 255, 255, 0)" stroke="rgba(255, 255, 255, 0)" stroke-width="10px" transform="translate(-1290.2190399169922,23.944520711898804) rotate(0)" d="M 123.92019030785022 4 L 1374.1713433885093 4 L 1374.1713433885093 16 L 1406.1713433885093 0 L 1374.1713433885093 -16 L 1374.1713433885093 -4 L 123.92019030785022 -4 Z"/><circle class="node overlay" r="126.96717317414381" stroke="none" fill="rgba(255, 255, 255, 0)" cx="-1290.2190399169922" cy="589.3816833496094"/><circle class="node ring" r="131.9671731741438" fill="none" stroke="rgba(255, 255, 255, 0)" stroke-width="10px" cx="-1290.2190399169922" cy="589.3816833496094"/><path class="relationship overlay" fill="rgba(255, 255, 255, 0)" stroke="rgba(255, 255, 255, 0)" stroke-width="10px" transform="translate(-1290.2190399169922,23.944520711898804) rotate(90)" d="M 123.92019030785022 4 L 395.4699894635668 4 L 395.4699894635668 16 L 427.4699894635668 0 L 395.4699894635668 -16 L 395.4699894635668 -4 L 123.92019030785022 -4 Z"/><circle class="node overlay" r="149.6911174547899" stroke="none" fill="rgba(255, 255, 255, 0)" cx="-1290.2190399169922" cy="-530.7716979980469"/><circle class="node ring" r="154.6911174547899" fill="none" stroke="rgba(255, 255, 255, 0)" stroke-width="10px" cx="-1290.2190399169922" cy="-530.7716979980469"/><path class="relationship overlay" fill="rgba(255, 255, 255, 0)" stroke="rgba(255, 255, 255, 0)" stroke-width="10px" transform="translate(-1290.2190399169922,23.944520711898804) rotate(-90)" d="M 123.92019030785022 4 L 362.0251012551558 4 L 362.0251012551558 16 L 394.0251012551558 0 L 362.0251012551558 -16 L 362.0251012551558 -4 L 123.92019030785022 -4 Z"/><circle class="node overlay" r="149.6911174547899" stroke="none" fill="rgba(255, 255, 255, 0)" cx="232.2100372314453" cy="-559.0779647827148"/><circle class="node ring" r="154.6911174547899" fill="none" stroke="rgba(255, 255, 255, 0)" stroke-width="10px" cx="232.2100372314453" cy="-559.0779647827148"/><path class="relationship overlay" fill="rgba(255, 255, 255, 0)" stroke="rgba(255, 255, 255, 0)" stroke-width="10px" transform="translate(232.2100372314453,23.944520711898804) rotate(-90)" d="M 116.2577337599282 4 L 390.33136803982376 4 L 390.33136803982376 16 L 422.33136803982376 0 L 390.33136803982376 -16 L 390.33136803982376 -4 L 116.2577337599282 -4 Z"/><circle class="node overlay" r="126.96717317414381" stroke="none" fill="rgba(255, 255, 255, 0)" cx="232.2100372314453" cy="589.3816833496094"/><circle class="node ring" r="131.9671731741438" fill="none" stroke="rgba(255, 255, 255, 0)" stroke-width="10px" cx="232.2100372314453" cy="589.3816833496094"/><path class="relationship overlay" fill="rgba(255, 255, 255, 0)" stroke="rgba(255, 255, 255, 0)" stroke-width="10px" transform="translate(232.2100372314453,23.944520711898804) rotate(90)" d="M 116.2577337599282 4 L 395.4699894635668 4 L 395.4699894635668 16 L 427.4699894635668 0 L 395.4699894635668 -16 L 395.4699894635668 -4 L 116.2577337599282 -4 Z"/></g></svg>